<svg width="39" height="39" viewBox="0 0 39 39" fill="none" xmlns="http://www.w3.org/2000/svg">
<g clip-path="url(#clip0_258_5707)">
<rect x="0.945312" y="0.555664" width="37.8889" height="37.8889" rx="18.9444" fill="#FFA0A0"/>
<path d="M26.8484 14.455C24.6821 13.2814 21.4209 11.0574 16.5494 7.19043C16.2618 6.96213 15.8365 7.17745 15.85 7.5444C16.0332 12.5503 15.7967 13.8094 12.3998 18.5927C8.19006 24.0239 3.33502 27.4485 -3.14448 31.2702C-3.419 31.4321 -3.42823 31.8266 -3.1608 32L15.3624 44.0079C15.4783 44.083 15.6235 44.0976 15.7521 44.0469L39.3614 34.7463C39.5051 34.6897 39.6067 34.5621 39.629 34.4092C40.2515 30.1364 41.8868 23.1715 35.119 18.8953C33.4234 17.7048 29.1221 15.6867 26.8484 14.455Z" fill="white" stroke="#715739" stroke-width="0.428017" stroke-linecap="round"/>
<path d="M19.8711 25.9097L21.275 26.6116" stroke="#51372B" stroke-opacity="0.6" stroke-width="0.428017" stroke-linecap="round"/>
<path d="M25.8672 26.6108L27.2711 25.9089" stroke="#51372B" stroke-opacity="0.6" stroke-width="0.428017" stroke-linecap="round"/>
<path d="M22.8711 29.3335L23.7685 29.4865C23.9406 29.5158 23.9457 29.7612 23.7749 29.7975L23.7196 29.8093C23.5778 29.8395 23.5661 30.0374 23.7033 30.0841V30.0841C23.8289 30.1269 23.8333 30.3029 23.71 30.352L23.0423 30.6175" stroke="#51372B" stroke-width="0.51362" stroke-linecap="round"/>
<path d="M16.0205 8.3612C16.0048 7.64494 16.0152 7.08247 16.2344 7.07715C22.3778 11.8384 26.2738 14.5873 28.2187 15.4235C33.4871 18.0211 36.2064 19.6337 37.4212 20.9877C39.3373 23.5975 39.5506 24.2446 39.7753 25.2679C38.8243 26.8488 37.5659 28.4989 36.137 29.548C37.8622 27.0244 31.4173 19.3042 16.0205 8.3612Z" fill="#FFE7D1"/>
<path d="M26.8484 14.455C24.6821 13.2814 21.4209 11.0574 16.5494 7.19043C16.2618 6.96213 15.8365 7.17745 15.85 7.5444C16.0332 12.5503 15.7967 13.8094 12.3998 18.5927C8.19006 24.0239 3.33502 27.4485 -3.14448 31.2702C-3.419 31.4321 -3.42823 31.8266 -3.1608 32L15.3624 44.0079C15.4783 44.083 15.6235 44.0976 15.7521 44.0469L39.3614 34.7463C39.5051 34.6897 39.6067 34.5621 39.629 34.4092C40.2515 30.1364 41.8868 23.1715 35.119 18.8953C33.4234 17.7048 29.1221 15.6867 26.8484 14.455Z" stroke="#715739" stroke-width="0.727629" stroke-linecap="round"/>
<path d="M25.8672 27.6224L27.1512 27.1943" stroke="#51372B" stroke-width="0.856034" stroke-linecap="round"/>
<path d="M21.1562 27.6224L19.8722 27.1943" stroke="#51372B" stroke-width="0.856034" stroke-linecap="round"/>
</g>
<rect x="1.14062" y="0.750968" width="37.4983" height="37.4983" rx="18.7491" stroke="#715739" stroke-width="0.390607"/>
<defs>
<clipPath id="clip0_258_5707">
<rect x="0.945312" y="0.555664" width="37.8889" height="37.8889" rx="18.9444" fill="white"/>
</clipPath>
</defs>
</svg>
