<svg width="47" height="47" viewBox="0 0 47 47" fill="none" xmlns="http://www.w3.org/2000/svg">
<g clip-path="url(#clip0_258_6384)">
<rect x="0.253906" y="0.686523" width="46.1125" height="46.1125" rx="23.0562" fill="#FFEBA4"/>
<path d="M28.4409 23.6194C26.0349 22.3159 22.4127 19.8458 17.0021 15.5509C16.6827 15.2973 16.2103 15.5364 16.2252 15.944C16.4288 21.5039 16.1661 22.9024 12.3932 28.215C7.7176 34.2473 2.32524 38.051 -4.87137 42.2956C-5.17626 42.4754 -5.18651 42.9136 -4.88949 43.1062L15.6837 56.443C15.8125 56.5265 15.9737 56.5426 16.1165 56.4864L42.3387 46.1564C42.4983 46.0936 42.6112 45.9518 42.636 45.782C43.3274 41.0363 45.1437 33.3006 37.6268 28.5511C35.7436 27.2289 30.9662 24.9875 28.4409 23.6194Z" fill="white" stroke="#715739" stroke-width="0.475387" stroke-linecap="round"/>
<path d="M20.6953 34.9143L22.2666 35.9618" stroke="#51372B" stroke-width="0.618002" stroke-linecap="round"/>
<path d="M20.6953 37.0093L22.2666 35.9618" stroke="#51372B" stroke-width="0.618002" stroke-linecap="round"/>
<path d="M28.918 34.9146L27.3467 35.9621" stroke="#51372B" stroke-width="0.618002" stroke-linecap="round"/>
<path d="M28.918 37.0105L27.3467 35.963" stroke="#51372B" stroke-width="0.618002" stroke-linecap="round"/>
<path d="M16.4117 16.8497C16.3942 16.0542 16.4057 15.4295 16.6492 15.4236C23.4725 20.7117 27.7997 23.7649 29.9599 24.6936C35.8113 27.5788 38.8316 29.3698 40.1808 30.8736C42.309 33.7723 42.5459 34.491 42.7954 35.6275C41.7392 37.3834 40.3415 39.2161 38.7545 40.3814C40.6707 37.5784 33.5125 29.0039 16.4117 16.8497Z" fill="#FFE7D1"/>
<path d="M28.4409 23.6194C26.0349 22.3159 22.4127 19.8458 17.0021 15.5509C16.6827 15.2973 16.2103 15.5364 16.2252 15.944C16.4288 21.5039 16.1661 22.9024 12.3932 28.215C7.7176 34.2473 2.32524 38.051 -4.87137 42.2956C-5.17626 42.4754 -5.18651 42.9136 -4.88949 43.1062L15.6837 56.443C15.8125 56.5265 15.9737 56.5426 16.1165 56.4864L42.3387 46.1564C42.4983 46.0936 42.6112 45.9518 42.636 45.782C43.3274 41.0363 45.1437 33.3006 37.6268 28.5511C35.7436 27.2289 30.9662 24.9875 28.4409 23.6194Z" stroke="#715739" stroke-width="0.808157" stroke-linecap="round"/>
<path d="M19.6473 37.9402C20.0903 38.2114 20.0605 38.8728 19.5884 39.0896C19.4438 39.1561 19.2781 39.1665 19.1259 39.1199C18.5405 38.9407 18.492 38.1224 19.0588 37.8911C19.2506 37.8128 19.4706 37.832 19.6473 37.9402Z" fill="#FFBEBE"/>
<path d="M30.1043 37.9402C30.5473 38.2114 30.5175 38.8728 30.0455 39.0896C29.9008 39.1561 29.7352 39.1665 29.5829 39.1199C28.9975 38.9407 28.949 38.1224 29.5158 37.8911C29.7076 37.8128 29.9277 37.832 30.1043 37.9402Z" fill="#FFBEBE"/>
<path d="M22.1211 39.1921C23.1592 39.6027 23.7335 39.6442 24.7357 39.1921C25.865 39.5645 26.5799 39.5683 27.1127 39.1921" stroke="#51372B" stroke-width="0.618002" stroke-linecap="round"/>
</g>
<rect x="0.4916" y="0.924217" width="45.6371" height="45.6371" rx="22.8186" stroke="#715739" stroke-width="0.475387"/>
<defs>
<clipPath id="clip0_258_6384">
<rect x="0.253906" y="0.686523" width="46.1125" height="46.1125" rx="23.0562" fill="white"/>
</clipPath>
</defs>
</svg>
