<svg width="39" height="39" viewBox="0 0 39 39" fill="none" xmlns="http://www.w3.org/2000/svg">
<g clip-path="url(#clip0_258_5697)">
<rect x="0.722656" y="0.555664" width="37.8889" height="37.8889" rx="18.9444" fill="#98C8EC"/>
<path d="M23.882 19.3991C21.9051 18.3281 18.9289 16.2985 14.4832 12.7695C14.2208 12.5612 13.8326 12.7577 13.8449 13.0925C14.0121 17.6609 13.7963 18.81 10.6963 23.1752C6.85449 28.1317 2.42379 31.257 -3.48938 34.7446C-3.7399 34.8924 -3.74833 35.2524 -3.50427 35.4107L13.3999 46.369C13.5057 46.4376 13.6382 46.4509 13.7556 46.4047L35.3014 37.917C35.4325 37.8653 35.5253 37.7488 35.5456 37.6093C36.1137 33.7099 37.6061 27.3538 31.4297 23.4513C29.8824 22.3649 25.957 20.5232 23.882 19.3991Z" fill="white" stroke="#715739" stroke-width="0.390607" stroke-linecap="round"/>
<path d="M21.0352 33.3682C20.4179 32.812 19.2242 32.8839 18.6915 33.3682" stroke="#51372B" stroke-width="0.507789" stroke-linecap="round"/>
<path d="M14.0006 13.8359C13.9862 13.1822 13.9957 12.6689 14.1957 12.6641C19.8022 17.0091 23.3577 19.5178 25.1326 20.2809C29.9405 22.6515 32.4221 24.1231 33.5308 25.3588C35.2794 27.7405 35.474 28.3311 35.6791 29.2649C34.8113 30.7076 33.6628 32.2135 32.3588 33.1709C33.9333 30.8678 28.0516 23.8225 14.0006 13.8359Z" fill="#FFE7D1"/>
<path d="M23.882 19.3991C21.9051 18.3281 18.9289 16.2985 14.4832 12.7695C14.2208 12.5612 13.8326 12.7577 13.8449 13.0925C14.0121 17.6609 13.7963 18.81 10.6963 23.1752C6.85449 28.1317 2.42379 31.257 -3.48938 34.7446C-3.7399 34.8924 -3.74833 35.2524 -3.50427 35.4107L13.3999 46.369C13.5057 46.4376 13.6382 46.4509 13.7556 46.4047L35.3014 37.917C35.4325 37.8653 35.5253 37.7488 35.5456 37.6093C36.1137 33.7099 37.6061 27.3538 31.4297 23.4513C29.8824 22.3649 25.957 20.5232 23.882 19.3991Z" stroke="#715739" stroke-width="0.664032" stroke-linecap="round"/>
<path d="M16.6586 31.5547C17.0226 31.7776 16.9982 32.3211 16.6103 32.4992C16.4914 32.5538 16.3553 32.5624 16.2302 32.5241C15.7492 32.3768 15.7094 31.7045 16.1751 31.5144C16.3327 31.4501 16.5135 31.4658 16.6586 31.5547Z" fill="#98C8EC" fill-opacity="0.37"/>
<path d="M23.6899 31.5547C24.0539 31.7776 24.0294 32.3211 23.6415 32.4992C23.5226 32.5538 23.3865 32.5624 23.2615 32.5241C22.7805 32.3768 22.7406 31.7045 23.2063 31.5144C23.3639 31.4501 23.5447 31.4658 23.6899 31.5547Z" fill="#98C8EC" fill-opacity="0.37"/>
<path d="M16.2957 31.5296C16.5727 32.1298 17.4162 32.1557 17.7296 31.5737C17.8574 31.3364 17.8574 31.0507 17.7296 30.8134C17.4162 30.2314 16.5727 30.2574 16.2957 30.8576C16.1973 31.0708 16.1973 31.3164 16.2957 31.5296Z" fill="#51372B"/>
<path d="M21.9988 31.5296C22.2758 32.1298 23.1193 32.1557 23.4327 31.5737C23.5605 31.3364 23.5605 31.0507 23.4327 30.8134C23.1193 30.2314 22.2758 30.2574 21.9988 30.8576C21.9004 31.0708 21.9004 31.3164 21.9988 31.5296Z" fill="#51372B"/>
</g>
<rect x="0.91796" y="0.750968" width="37.4983" height="37.4983" rx="18.7491" stroke="#715739" stroke-width="0.390607"/>
<defs>
<clipPath id="clip0_258_5697">
<rect x="0.722656" y="0.555664" width="37.8889" height="37.8889" rx="18.9444" fill="white"/>
</clipPath>
</defs>
</svg>
