<svg width="39" height="39" viewBox="0 0 39 39" fill="none" xmlns="http://www.w3.org/2000/svg">
<g clip-path="url(#clip0_258_5725)">
<rect x="0.390625" y="0.555664" width="37.8889" height="37.8889" rx="18.9444" fill="#E6C1EB"/>
<path d="M23.55 19.3991C21.5731 18.3281 18.5969 16.2985 14.1512 12.7695C13.8887 12.5612 13.5006 12.7577 13.5129 13.0925C13.6801 17.6609 13.4642 18.81 10.3642 23.1752C6.52246 28.1317 2.09176 31.257 -3.82142 34.7446C-4.07193 34.8924 -4.08036 35.2524 -3.83631 35.4107L13.0679 46.369C13.1737 46.4376 13.3062 46.4509 13.4235 46.4047L34.9693 37.917C35.1005 37.8653 35.1932 37.7488 35.2136 37.6093C35.7817 33.7099 37.2741 27.3538 31.0977 23.4513C29.5504 22.3649 25.6249 20.5232 23.55 19.3991Z" fill="white" stroke="#715739" stroke-width="0.390607" stroke-linecap="round"/>
<path d="M17.5781 29.8506L16.0157 30.6318" stroke="#51372B" stroke-width="0.507789" stroke-linecap="round"/>
<path d="M23.4336 30.6328L21.8712 29.8516" stroke="#51372B" stroke-width="0.507789" stroke-linecap="round"/>
<path d="M13.6685 13.8359C13.6542 13.1822 13.6636 12.6689 13.8637 12.6641C19.4701 17.0091 23.0257 19.5178 24.8005 20.2809C29.6085 22.6515 32.0901 24.1231 33.1987 25.3588C34.9474 27.7405 35.142 28.3311 35.3471 29.2649C34.4792 30.7076 33.3308 32.2135 32.0268 33.1709C33.6012 30.8678 27.7196 23.8225 13.6685 13.8359Z" fill="#FFE7D1"/>
<path d="M23.55 19.3991C21.5731 18.3281 18.5969 16.2985 14.1512 12.7695C13.8887 12.5612 13.5006 12.7577 13.5129 13.0925C13.6801 17.6609 13.4642 18.81 10.3642 23.1752C6.52246 28.1317 2.09176 31.257 -3.82142 34.7446C-4.07193 34.8924 -4.08036 35.2524 -3.83631 35.4107L13.0679 46.369C13.1737 46.4376 13.3062 46.4509 13.4235 46.4047L34.9693 37.917C35.1005 37.8653 35.1932 37.7488 35.2136 37.6093C35.7817 33.7099 37.2741 27.3538 31.0977 23.4513C29.5504 22.3649 25.6249 20.5232 23.55 19.3991Z" stroke="#715739" stroke-width="0.664032" stroke-linecap="round"/>
<path d="M21.2852 33.1476C20.7517 32.9036 20.675 32.9388 20.2021 33.1476C19.7675 33.4347 19.5226 33.4486 19.0836 33.1476C18.5875 32.9402 18.2241 32.9554 17.965 33.1476" stroke="#51372B" stroke-width="0.507789" stroke-linecap="round"/>
</g>
<rect x="0.585929" y="0.750968" width="37.4983" height="37.4983" rx="18.7491" stroke="#715739" stroke-width="0.390607"/>
<defs>
<clipPath id="clip0_258_5725">
<rect x="0.390625" y="0.555664" width="37.8889" height="37.8889" rx="18.9444" fill="white"/>
</clipPath>
</defs>
</svg>
