<svg width="39" height="39" viewBox="0 0 39 39" fill="none" xmlns="http://www.w3.org/2000/svg">
<g clip-path="url(#clip0_258_5733)">
<rect x="0.613281" y="0.555664" width="37.8889" height="37.8889" rx="18.9444" fill="#95EB98"/>
<path d="M23.7727 19.3991C21.7957 18.3281 18.8195 16.2985 14.3739 12.7695C14.1114 12.5612 13.7233 12.7577 13.7355 13.0925C13.9028 17.6609 13.6869 18.81 10.5869 23.1752C6.74512 28.1317 2.31442 31.257 -3.59876 34.7446C-3.84928 34.8924 -3.8577 35.2524 -3.61365 35.4107L13.2905 46.369C13.3964 46.4376 13.5288 46.4509 13.6462 46.4047L35.192 37.917C35.3231 37.8653 35.4159 37.7488 35.4362 37.6093C36.0043 33.7099 37.4967 27.3538 31.3204 23.4513C29.773 22.3649 25.8476 20.5232 23.7727 19.3991Z" fill="white" stroke="#715739" stroke-width="0.195304" stroke-linecap="round"/>
<path d="M19.7461 32.1348L19.5508 32.916" stroke="#51372B" stroke-width="0.507789" stroke-linecap="round"/>
<path d="M18.8065 32.0401L18.6428 32.5884C18.5225 32.9912 18.7414 33.4172 19.139 33.5539V33.5539C19.5579 33.698 20.0129 33.4665 20.1431 33.043L20.4515 32.04" stroke="#51372B" stroke-width="0.507789" stroke-linecap="round"/>
<path d="M24.6445 29.0908L23.1406 30.1465" stroke="#51372B" stroke-width="0.507789" stroke-linecap="round"/>
<path d="M24.9297 30.5718L23.1424 30.1457" stroke="#51372B" stroke-width="0.507789" stroke-linecap="round"/>
<path d="M16.5664 29.0698L18.0371 30.1712" stroke="#51372B" stroke-width="0.507789" stroke-linecap="round"/>
<path d="M16.2383 30.541L18.0379 30.1701" stroke="#51372B" stroke-width="0.507789" stroke-linecap="round"/>
<path d="M13.8912 13.8359C13.8768 13.1822 13.8863 12.6689 14.0863 12.6641C19.6928 17.0091 23.2483 19.5178 25.0232 20.2809C29.8311 22.6515 32.3127 24.1231 33.4214 25.3588C35.17 27.7405 35.3646 28.3311 35.5697 29.2649C34.7019 30.7076 33.5534 32.2135 32.2494 33.1709C33.8239 30.8678 27.9422 23.8225 13.8912 13.8359Z" fill="#FFE7D1"/>
<path d="M23.7727 19.3991C21.7957 18.3281 18.8195 16.2985 14.3739 12.7695C14.1114 12.5612 13.7233 12.7577 13.7355 13.0925C13.9028 17.6609 13.6869 18.81 10.5869 23.1752C6.74512 28.1317 2.31442 31.257 -3.59876 34.7446C-3.84928 34.8924 -3.8577 35.2524 -3.61365 35.4107L13.2905 46.369C13.3964 46.4376 13.5288 46.4509 13.6462 46.4047L35.192 37.917C35.3231 37.8653 35.4159 37.7488 35.4362 37.6093C36.0043 33.7099 37.4967 27.3538 31.3204 23.4513C29.773 22.3649 25.8476 20.5232 23.7727 19.3991Z" stroke="#715739" stroke-width="0.664032" stroke-linecap="round"/>
<path d="M17.207 31.8404C17.9148 32.16 18.105 32.3659 18.7695 32.0356C19.449 31.6872 19.8596 31.6596 20.4377 31.9023C20.6306 31.9833 20.8218 32.0718 21.0246 32.1231C21.5736 32.2621 21.865 32.2064 22.2849 32.0356C22.8932 31.7342 23.2391 31.7708 23.8474 32.0356" stroke="#51372B" stroke-width="0.507789" stroke-linecap="round"/>
</g>
<rect x="0.808585" y="0.750968" width="37.4983" height="37.4983" rx="18.7491" stroke="#715739" stroke-width="0.390607"/>
<defs>
<clipPath id="clip0_258_5733">
<rect x="0.613281" y="0.555664" width="37.8889" height="37.8889" rx="18.9444" fill="white"/>
</clipPath>
</defs>
</svg>
