<svg width="39" height="39" viewBox="0 0 39 39" fill="none" xmlns="http://www.w3.org/2000/svg">
<g clip-path="url(#clip0_258_5717)">
<rect x="0.167969" y="0.555664" width="37.8889" height="37.8889" rx="18.9444" fill="#FFB897"/>
<path d="M23.3274 19.3991C21.3504 18.3281 18.3742 16.2985 13.9286 12.7695C13.6661 12.5612 13.278 12.7577 13.2902 13.0925C13.4575 17.6609 13.2416 18.81 10.1416 23.1752C6.29981 28.1317 1.8691 31.257 -4.04407 34.7446C-4.29459 34.8924 -4.30301 35.2524 -4.05896 35.4107L12.8452 46.369C12.9511 46.4376 13.0835 46.4509 13.2009 46.4047L34.7467 37.917C34.8778 37.8653 34.9706 37.7488 34.9909 37.6093C35.559 33.7099 37.0514 27.3538 30.875 23.4513C29.3277 22.3649 25.4023 20.5232 23.3274 19.3991Z" fill="white" stroke="#715739" stroke-width="0.390607" stroke-linecap="round"/>
<path d="M21.0379 31.1429C21.2828 31.6072 21.9398 31.6289 22.2149 31.1819C22.349 30.964 22.349 30.6892 22.2149 30.4713C21.9398 30.0243 21.2828 30.046 21.0379 30.5103C20.9335 30.7082 20.9335 30.9449 21.0379 31.1429Z" fill="#51372B"/>
<path d="M15.9598 31.1429C16.2047 31.6072 16.8616 31.6289 17.1368 31.1819C17.2708 30.964 17.2708 30.6892 17.1368 30.4713C16.8616 30.0243 16.2047 30.046 15.9598 30.5103C15.8554 30.7082 15.8554 30.9449 15.9598 31.1429Z" fill="#51372B"/>
<path d="M13.4498 13.8359C13.4354 13.1822 13.4449 12.6689 13.6449 12.6641C19.2514 17.0091 22.8069 19.5178 24.5818 20.2809C29.3897 22.6515 31.8713 24.1231 32.98 25.3588C34.7286 27.7405 34.9232 28.3311 35.1283 29.2649C34.2605 30.7076 33.112 32.2135 31.808 33.1709C33.3825 30.8678 27.5008 23.8225 13.4498 13.8359Z" fill="#FFE7D1"/>
<path d="M23.3274 19.3991C21.3504 18.3281 18.3742 16.2985 13.9286 12.7695C13.6661 12.5612 13.278 12.7577 13.2902 13.0925C13.4575 17.6609 13.2416 18.81 10.1416 23.1752C6.29981 28.1317 1.8691 31.257 -4.04407 34.7446C-4.29459 34.8924 -4.30301 35.2524 -4.05896 35.4107L12.8452 46.369C12.9511 46.4376 13.0835 46.4509 13.2009 46.4047L34.7467 37.917C34.8778 37.8653 34.9706 37.7488 34.9909 37.6093C35.559 33.7099 37.0514 27.3538 30.875 23.4513C29.3277 22.3649 25.4023 20.5232 23.3274 19.3991Z" stroke="#715739" stroke-width="0.664032" stroke-linecap="round"/>
<path d="M17.7461 32.9761H20.4803" stroke="#51372B" stroke-width="0.507789" stroke-linecap="round"/>
</g>
<rect x="0.363272" y="0.750968" width="37.4983" height="37.4983" rx="18.7491" stroke="#715739" stroke-width="0.390607"/>
<defs>
<clipPath id="clip0_258_5717">
<rect x="0.167969" y="0.555664" width="37.8889" height="37.8889" rx="18.9444" fill="white"/>
</clipPath>
</defs>
</svg>
