<svg width="70" height="70" viewBox="0 0 70 70" fill="none" xmlns="http://www.w3.org/2000/svg">
<g clip-path="url(#clip0_262_71)">
<rect width="70" height="70" rx="35" fill="#FFFBF2"/>
<path d="M42.7898 34.813C39.1374 32.8343 33.6388 29.0846 25.4255 22.5648C24.9406 22.1798 24.2235 22.5429 24.2461 23.1616C24.5551 31.6017 24.1563 33.7245 18.429 41.7893C11.3313 50.9465 3.14553 56.7206 -7.77911 63.164C-8.24194 63.4369 -8.25751 64.1022 -7.80662 64.3945L23.424 84.6401C23.6195 84.7668 23.8642 84.7914 24.081 84.706L63.8871 69.0249C64.1294 68.9294 64.3007 68.7142 64.3383 68.4565C65.3879 61.2524 68.1451 49.5094 56.7342 42.2995C53.8755 40.2923 46.6233 36.8898 42.7898 34.813Z" fill="white" stroke="#715739" stroke-width="0.721649" stroke-linecap="round"/>
<path d="M31.0352 51.9587L33.4204 53.5489" stroke="#51372B" stroke-width="1.2" stroke-linecap="round"/>
<path d="M31.0352 55.1394L33.4204 53.5492" stroke="#51372B" stroke-width="1.2" stroke-linecap="round"/>
<path d="M43.5273 51.9575L41.1421 53.5477" stroke="#51372B" stroke-width="1.2" stroke-linecap="round"/>
<path d="M43.5273 55.1392L41.1421 53.549" stroke="#51372B" stroke-width="1.2" stroke-linecap="round"/>
<path d="M24.5317 24.536C24.5052 23.3284 24.5227 22.3801 24.8922 22.3711C35.2502 30.3986 41.819 35.0334 45.0982 36.4433C53.9809 40.823 58.5657 43.5418 60.6139 45.8247C63.8445 50.2249 64.2041 51.316 64.5829 53.0412C62.9796 55.7066 60.8578 58.4888 58.4487 60.2577C61.3575 56.0027 50.4911 42.9863 24.5317 24.536Z" fill="#FFE7D1"/>
<path d="M42.7898 34.813C39.1374 32.8343 33.6388 29.0846 25.4255 22.5648C24.9406 22.1798 24.2235 22.5429 24.2461 23.1616C24.5551 31.6017 24.1563 33.7245 18.429 41.7893C11.3313 50.9465 3.14553 56.7206 -7.77911 63.164C-8.24194 63.4369 -8.25751 64.1022 -7.80662 64.3945L23.424 84.6401C23.6195 84.7668 23.8642 84.7914 24.081 84.706L63.8871 69.0249C64.1294 68.9294 64.3007 68.7142 64.3383 68.4565C65.3879 61.2524 68.1451 49.5094 56.7342 42.2995C53.8755 40.2923 46.6233 36.8898 42.7898 34.813Z" stroke="#715739" stroke-width="1.5" stroke-linecap="round"/>
<path d="M29.4495 56.5523C30.122 56.964 30.0768 57.9681 29.3602 58.2972C29.1406 58.398 28.8891 58.4139 28.658 58.3432C27.7694 58.0712 27.6958 56.829 28.5562 56.4778C28.8473 56.359 29.1814 56.3881 29.4495 56.5523Z" fill="#FFBEBE"/>
<path d="M45.3089 56.5523C45.9814 56.964 45.9362 57.9681 45.2196 58.2972C44.9999 58.398 44.7485 58.4139 44.5174 58.3432C43.6288 58.0712 43.5552 56.829 44.4156 56.4778C44.7067 56.359 45.0407 56.3881 45.3089 56.5523Z" fill="#FFBEBE"/>
<path d="M33.1992 58.4541C34.7751 59.0774 35.6468 59.1404 37.1683 58.4541C38.8826 59.0194 39.9677 59.0251 40.7765 58.4541" stroke="#51372B" stroke-width="1.2" stroke-linecap="round"/>
</g>
<defs>
<clipPath id="clip0_262_71">
<rect width="70" height="70" rx="35" fill="white"/>
</clipPath>
</defs>
</svg>
