<svg width="430" height="681" viewBox="0 0 430 681" fill="none" xmlns="http://www.w3.org/2000/svg">
<path fill-rule="evenodd" clip-rule="evenodd" d="M397.006 6.20263C406.855 4.40136 418.531 3.56981 430 3.67235V68V71.1489V681H0V71.2788V68V3.74852C20.9238 3.44286 36.1967 5.88671 49.4148 11.6352C51.1433 12.3867 54.5376 13.7314 56.9575 14.6225C59.3774 15.5137 61.6516 16.4346 62.0111 16.6689C62.3706 16.9038 65.482 17.6909 68.9252 18.4189C83.9728 21.5981 85.9553 21.7934 102.842 21.7676C117.321 21.7446 120.203 21.5566 128.11 20.1201C143.679 17.291 148.311 15.9575 160.923 10.6709C173.776 5.28417 183.975 2.33104 194.611 0.916981C198.068 0.457508 207.058 0.0468639 214.589 0.00487169C235.376 -0.110851 246.33 1.79442 272.552 10.0893C278.083 11.8393 286.003 13.9282 290.152 14.7329C294.3 15.5366 298.32 16.4145 299.085 16.685C301.189 17.4297 324.307 19.0132 333.126 19.0176C343.881 19.0224 356.521 17.5986 366.207 15.2905C370.701 14.2202 374.661 13.1665 375.007 12.9492C376.372 12.0913 393.459 6.85155 397.006 6.20263Z" fill="white"/>
</svg>
