<svg width="61" height="21" viewBox="0 0 61 21" fill="none" xmlns="http://www.w3.org/2000/svg">
<path fill-rule="evenodd" clip-rule="evenodd" d="M29.6461 0.150917C29.6461 0.244336 29.1663 0.741105 28.5793 1.25491C26.4717 3.10103 26.7975 4.59628 29.5075 5.51838C30.4118 5.82584 32.9545 6.30008 35.1575 6.5721C44.0637 7.67169 50.9623 9.60629 55.4694 12.269C59.2608 14.5086 61.4538 17.4859 60.9207 19.6703L60.6967 20.5882H30.7187H0.740231L0.368305 19.5579C-0.595272 16.8899 0.328289 14.5166 3.18115 12.3303C4.27656 11.4909 5.93612 10.5215 6.86968 10.1764C8.36667 9.62277 8.56675 9.44583 8.56675 8.67622C8.56675 6.94412 10.8898 4.4655 13.9259 2.95816C16.0696 1.894 20.4334 0.862 24.8168 0.382541C28.8244 -0.0557036 29.6461 -0.0949945 29.6461 0.150917Z" fill="#FFFDF8"/>
<path d="M28.2498 0.878797L28.25 0.878676C28.3926 0.753806 28.528 0.630656 28.6504 0.515231C27.9482 0.554672 26.7783 0.671025 24.8712 0.879577C20.5055 1.35709 16.2121 2.38149 14.1482 3.406C12.6787 4.1356 11.3885 5.09762 10.4726 6.07482C9.53685 7.07324 9.06675 8.00574 9.06675 8.67622C9.06675 8.88244 9.05462 9.09986 8.98889 9.30802C8.91806 9.53231 8.79382 9.72008 8.61075 9.88191C8.43912 10.0336 8.22335 10.1557 7.97699 10.2702C7.72817 10.3857 7.41885 10.5064 7.04312 10.6454L7.04305 10.6454C6.17072 10.9679 4.55519 11.9073 3.48528 12.7271C2.10357 13.786 1.23259 14.8577 0.809521 15.9448C0.391144 17.0198 0.393112 18.1546 0.838573 19.388L0.838604 19.3881L1.09132 20.0882H30.7187H60.3041L60.435 19.5517C60.651 18.6665 60.3295 17.5296 59.4142 16.2869C58.5078 15.0563 57.0681 13.794 55.2151 12.6995L55.2151 12.6995C50.7951 10.0882 43.9761 8.16468 35.0962 7.06833C32.8919 6.79615 30.3039 6.3173 29.3465 5.99177L29.3464 5.99173C27.9707 5.52362 26.9662 4.84035 26.7483 3.83954C26.5282 2.82914 27.1766 1.81892 28.2498 0.878797Z" stroke="#713D00" stroke-opacity="0.5"/>
</svg>
