<svg width="13" height="13" viewBox="0 0 13 13" fill="none" xmlns="http://www.w3.org/2000/svg">
<path d="M8.79688 2.50489L10.12 3.82802M9.6475 1.33927L6.06813 4.91864C5.88318 5.10333 5.75705 5.33863 5.70563 5.59489L5.375 7.24989L7.03 6.91864C7.28625 6.86739 7.52125 6.74177 7.70625 6.55677L11.2856 2.97739C11.3932 2.86983 11.4785 2.74214 11.5367 2.6016C11.5949 2.46107 11.6249 2.31044 11.6249 2.15833C11.6249 2.00622 11.5949 1.85559 11.5367 1.71506C11.4785 1.57452 11.3932 1.44683 11.2856 1.33927C11.1781 1.23171 11.0504 1.14638 10.9098 1.08817C10.7693 1.02996 10.6187 1 10.4666 1C10.3144 1 10.1638 1.02996 10.0233 1.08817C9.88275 1.14638 9.75506 1.23171 9.6475 1.33927Z" stroke="#562E00" stroke-width="1.8" stroke-linecap="round" stroke-linejoin="round"/>
<path d="M10.375 8.5V10.375C10.375 10.7065 10.2433 11.0245 10.0089 11.2589C9.77446 11.4933 9.45652 11.625 9.125 11.625H2.25C1.91848 11.625 1.60054 11.4933 1.36612 11.2589C1.1317 11.0245 1 10.7065 1 10.375V3.5C1 3.16848 1.1317 2.85054 1.36612 2.61612C1.60054 2.3817 1.91848 2.25 2.25 2.25H4.125" stroke="#562E00" stroke-width="1.8" stroke-linecap="round" stroke-linejoin="round"/>
</svg>
