<svg width="20" height="20" viewBox="0 0 20 20" fill="none" xmlns="http://www.w3.org/2000/svg">
<path d="M13.7125 6.21261C13.8886 6.04497 14.1229 5.95229 14.366 5.95413C14.6092 5.95597 14.842 6.05218 15.0156 6.22246C15.1891 6.39275 15.2897 6.62379 15.2961 6.86682C15.3025 7.10986 15.2143 7.34589 15.05 7.52511L10.0625 13.7626C9.97675 13.855 9.87324 13.9291 9.75818 13.9806C9.64311 14.032 9.51885 14.0597 9.39283 14.0621C9.2668 14.0644 9.1416 14.0413 9.02471 13.9941C8.90782 13.947 8.80164 13.8767 8.71251 13.7876L5.40501 10.4801C5.31291 10.3943 5.23903 10.2908 5.18779 10.1758C5.13655 10.0608 5.109 9.93664 5.10677 9.81076C5.10455 9.68488 5.12771 9.55984 5.17486 9.44311C5.22201 9.32637 5.29219 9.22033 5.38122 9.13131C5.47024 9.04228 5.57628 8.9721 5.69302 8.92495C5.80975 8.8778 5.93479 8.85464 6.06067 8.85687C6.18655 8.85909 6.31069 8.88664 6.42569 8.93788C6.54069 8.98912 6.64419 9.063 6.73001 9.15511L9.34751 11.7714L13.6888 6.24011L13.7125 6.21261Z" fill="#562E00"/>
</svg>
