<svg width="47" height="47" viewBox="0 0 47 47" fill="none" xmlns="http://www.w3.org/2000/svg">
<g clip-path="url(#clip0_290_214)">
<rect x="0.253418" y="0.687012" width="46.1125" height="46.1125" rx="23.0562" fill="#FFEBA4"/>
<path d="M28.4386 23.6199C26.0326 22.3164 22.4104 19.8463 16.9998 15.5513C16.6804 15.2978 16.208 15.5369 16.2229 15.9445C16.4265 21.5044 16.1637 22.9028 12.3909 28.2155C7.71528 34.2478 2.32292 38.0515 -4.87369 42.2961C-5.17858 42.4759 -5.18883 42.9141 -4.89181 43.1066L15.6813 56.4434C15.8102 56.5269 15.9714 56.5431 16.1142 56.4868L42.3364 46.1569C42.496 46.0941 42.6089 45.9523 42.6336 45.7825C43.3251 41.0368 45.1414 33.3011 37.6245 28.5516C35.7413 27.2293 30.9639 24.9879 28.4386 23.6199Z" fill="white" stroke="#715739" stroke-width="0.475387" stroke-linecap="round"/>
<path d="M20.6947 34.915L22.266 35.9626" stroke="#51372B" stroke-width="0.618002" stroke-linecap="round"/>
<path d="M20.6947 37.0098L22.266 35.9622" stroke="#51372B" stroke-width="0.618002" stroke-linecap="round"/>
<path d="M28.9186 34.915L27.3473 35.9626" stroke="#51372B" stroke-width="0.618002" stroke-linecap="round"/>
<path d="M28.9186 37.0112L27.3473 35.9637" stroke="#51372B" stroke-width="0.618002" stroke-linecap="round"/>
<path d="M16.4131 16.85C16.3957 16.0545 16.4072 15.4297 16.6507 15.4238C23.474 20.712 27.8012 23.7651 29.9613 24.6939C35.8128 27.579 38.833 29.37 40.1823 30.8739C42.3105 33.7725 42.5473 34.4913 42.7969 35.6278C41.7407 37.3836 40.343 39.2164 38.756 40.3816C40.6721 37.5787 33.5139 29.0041 16.4131 16.85Z" fill="#FFE7D1"/>
<path d="M28.4386 23.6199C26.0326 22.3164 22.4104 19.8463 16.9998 15.5513C16.6804 15.2978 16.208 15.5369 16.2229 15.9445C16.4265 21.5044 16.1637 22.9028 12.3909 28.2155C7.71528 34.2478 2.32292 38.0515 -4.87369 42.2961C-5.17858 42.4759 -5.18883 42.9141 -4.89181 43.1066L15.6813 56.4434C15.8102 56.5269 15.9714 56.5431 16.1142 56.4868L42.3364 46.1569C42.496 46.0941 42.6089 45.9523 42.6336 45.7825C43.3251 41.0368 45.1414 33.3011 37.6245 28.5516C35.7413 27.2293 30.9639 24.9879 28.4386 23.6199Z" stroke="#715739" stroke-width="0.808157" stroke-linecap="round"/>
<path d="M19.6479 37.9406C20.0909 38.2119 20.0611 38.8733 19.5891 39.0901C19.4444 39.1565 19.2787 39.167 19.1265 39.1204C18.5411 38.9412 18.4926 38.1229 19.0594 37.8916C19.2512 37.8133 19.4712 37.8325 19.6479 37.9406Z" fill="#FFBEBE"/>
<path d="M30.1058 37.9406C30.5488 38.2119 30.519 38.8733 30.0469 39.0901C29.9023 39.1565 29.7366 39.167 29.5844 39.1204C28.999 38.9412 28.9505 38.1229 29.5173 37.8916C29.7091 37.8133 29.9291 37.8325 30.1058 37.9406Z" fill="#FFBEBE"/>
<path d="M22.1212 39.1929C23.1593 39.6035 23.7336 39.6449 24.7358 39.1929C25.8651 39.5652 26.58 39.569 27.1128 39.1929" stroke="#51372B" stroke-width="0.618002" stroke-linecap="round"/>
</g>
<rect x="0.491111" y="0.924705" width="45.6371" height="45.6371" rx="22.8186" stroke="#715739" stroke-width="0.475387"/>
<defs>
<clipPath id="clip0_290_214">
<rect x="0.253418" y="0.687012" width="46.1125" height="46.1125" rx="23.0562" fill="white"/>
</clipPath>
</defs>
</svg>
