<svg width="70" height="70" viewBox="0 0 70 70" fill="none" xmlns="http://www.w3.org/2000/svg">
<g clip-path="url(#clip0_290_1328)">
<rect width="70" height="70" rx="35" fill="#FFEBA4"/>
<path d="M42.7879 34.8132C39.1354 32.8345 33.6369 29.0849 25.4235 22.565C24.9386 22.1801 24.2215 22.5431 24.2442 23.1618C24.5532 31.6019 24.1543 33.7248 18.427 41.7895C11.3293 50.9468 3.14358 56.7208 -7.78106 63.1642C-8.2439 63.4372 -8.25946 64.1024 -7.80857 64.3947L23.422 84.6403C23.6176 84.7671 23.8623 84.7916 24.0791 84.7062L63.8851 69.0251C64.1274 68.9297 64.2988 68.7145 64.3363 68.4568C65.3859 61.2526 68.1431 49.5096 56.7323 42.2997C53.8735 40.2925 46.6213 36.89 42.7879 34.8132Z" fill="white" stroke="#715739" stroke-width="0.72165" stroke-linecap="round"/>
<path d="M31.0311 51.959L33.4163 53.5492" stroke="#51372B" stroke-width="1.2" stroke-linecap="round"/>
<path d="M31.0311 55.1396L33.4163 53.5495" stroke="#51372B" stroke-width="1.2" stroke-linecap="round"/>
<path d="M43.5176 51.958L41.1323 53.5482" stroke="#51372B" stroke-width="1.2" stroke-linecap="round"/>
<path d="M43.5176 55.1396L41.1323 53.5495" stroke="#51372B" stroke-width="1.2" stroke-linecap="round"/>
<path d="M24.5336 24.536C24.5071 23.3284 24.5246 22.3801 24.8942 22.3711C35.2522 30.3986 41.821 35.0334 45.1001 36.4433C53.9828 40.823 58.5676 43.5418 60.6158 45.8247C63.8465 50.2249 64.206 51.316 64.5849 53.0412C62.9816 55.7066 60.8598 58.4888 58.4507 60.2577C61.3594 56.0027 50.4931 42.9863 24.5336 24.536Z" fill="#FFE7D1"/>
<path d="M42.7879 34.8132C39.1354 32.8345 33.6369 29.0849 25.4235 22.565C24.9386 22.1801 24.2215 22.5431 24.2442 23.1618C24.5532 31.6019 24.1543 33.7248 18.427 41.7895C11.3293 50.9468 3.14358 56.7208 -7.78106 63.1642C-8.2439 63.4372 -8.25946 64.1024 -7.80857 64.3947L23.422 84.6403C23.6176 84.7671 23.8623 84.7916 24.0791 84.7062L63.8851 69.0251C64.1274 68.9297 64.2988 68.7145 64.3363 68.4568C65.3859 61.2526 68.1431 49.5096 56.7323 42.2997C53.8735 40.2925 46.6213 36.89 42.7879 34.8132Z" stroke="#715739" stroke-width="1.5" stroke-linecap="round"/>
<path d="M29.4417 56.5525C30.1142 56.9643 30.069 57.9684 29.3524 58.2974C29.1328 58.3983 28.8813 58.4142 28.6502 58.3434C27.7616 58.0714 27.688 56.8292 28.5484 56.478C28.8395 56.3592 29.1736 56.3883 29.4417 56.5525Z" fill="#FFBEBE"/>
<path d="M45.3147 56.5525C45.9873 56.9643 45.942 57.9684 45.2254 58.2974C45.0058 58.3983 44.7544 58.4142 44.5233 58.3434C43.6346 58.0714 43.561 56.8292 44.4214 56.478C44.7125 56.3592 45.0466 56.3883 45.3147 56.5525Z" fill="#FFBEBE"/>
<path d="M33.1953 58.4541C34.7712 59.0774 35.6429 59.1404 37.1644 58.4541C38.8787 59.0194 39.9638 59.0251 40.7726 58.4541" stroke="#51372B" stroke-width="1.2" stroke-linecap="round"/>
</g>
<rect x="0.75" y="0.75" width="68.5" height="68.5" rx="34.25" stroke="#715739" stroke-width="1.5"/>
<defs>
<clipPath id="clip0_290_1328">
<rect width="70" height="70" rx="35" fill="white"/>
</clipPath>
</defs>
</svg>
