<svg width="47" height="47" viewBox="0 0 47 47" fill="none" xmlns="http://www.w3.org/2000/svg">
<g clip-path="url(#clip0_290_227)">
<rect x="0.730103" y="0.687012" width="46.1125" height="46.1125" rx="23.0562" fill="#98C8EC"/>
<path d="M28.9156 23.6199C26.5096 22.3164 22.8874 19.8463 17.4769 15.5513C17.1574 15.2978 16.6851 15.5369 16.7 15.9445C16.9035 21.5044 16.6408 22.9028 12.8679 28.2155C8.19233 34.2478 2.79997 38.0515 -4.39663 42.2961C-4.70153 42.4759 -4.71178 42.9141 -4.41476 43.1066L16.1584 56.4434C16.2872 56.5269 16.4484 56.5431 16.5912 56.4868L42.8135 46.1569C42.9731 46.0941 43.086 45.9523 43.1107 45.7825C43.8021 41.0368 45.6184 33.3011 38.1015 28.5516C36.2183 27.2293 31.4409 24.9879 28.9156 23.6199Z" fill="white" stroke="#715739" stroke-width="0.475387" stroke-linecap="round"/>
<path d="M25.4495 40.6191C24.6983 39.9423 23.2454 40.0298 22.5971 40.6191" stroke="#51372B" stroke-width="0.618002" stroke-linecap="round"/>
<path d="M16.8937 16.85C16.8763 16.0545 16.8878 15.4297 17.1312 15.4238C23.9546 20.712 28.2818 23.7651 30.4419 24.6939C36.2934 27.579 39.3136 29.37 40.6629 30.8739C42.7911 33.7725 43.0279 34.4913 43.2775 35.6278C42.2213 37.3836 40.8236 39.2164 39.2366 40.3816C41.1527 37.5787 33.9945 29.0041 16.8937 16.85Z" fill="#FFE7D1"/>
<path d="M28.9156 23.6199C26.5096 22.3164 22.8874 19.8463 17.4769 15.5513C17.1574 15.2978 16.6851 15.5369 16.7 15.9445C16.9035 21.5044 16.6408 22.9028 12.8679 28.2155C8.19233 34.2478 2.79997 38.0515 -4.39663 42.2961C-4.70153 42.4759 -4.71178 42.9141 -4.41476 43.1066L16.1584 56.4434C16.2872 56.5269 16.4484 56.5431 16.5912 56.4868L42.8135 46.1569C42.9731 46.0941 43.086 45.9523 43.1107 45.7825C43.8021 41.0368 45.6184 33.3011 38.1015 28.5516C36.2183 27.2293 31.4409 24.9879 28.9156 23.6199Z" stroke="#715739" stroke-width="0.808157" stroke-linecap="round"/>
<path d="M20.1249 38.4162C20.5679 38.6875 20.5382 39.3489 20.0661 39.5657C19.9214 39.6321 19.7558 39.6426 19.6035 39.596C19.0182 39.4168 18.9697 38.5985 19.5365 38.3672C19.7282 38.2889 19.9483 38.3081 20.1249 38.4162Z" fill="#98C8EC" fill-opacity="0.37"/>
<path d="M28.6806 38.4162C29.1236 38.6875 29.0938 39.3489 28.6218 39.5657C28.4771 39.6321 28.3114 39.6426 28.1592 39.596C27.5738 39.4168 27.5253 38.5985 28.0921 38.3672C28.2839 38.2889 28.504 38.3081 28.6806 38.4162Z" fill="#98C8EC" fill-opacity="0.37"/>
<path d="M19.6851 38.3829C20.0222 39.1134 21.0488 39.145 21.4302 38.4366C21.5857 38.1478 21.5857 37.8002 21.4302 37.5114C21.0488 36.803 20.0222 36.8346 19.6851 37.5651C19.5653 37.8245 19.5653 38.1234 19.6851 38.3829Z" fill="#51372B"/>
<path d="M26.6204 38.3829C26.9575 39.1134 27.9841 39.145 28.3655 38.4366C28.521 38.1478 28.521 37.8002 28.3655 37.5114C27.9841 36.803 26.9575 36.8346 26.6204 37.5651C26.5006 37.8245 26.5006 38.1234 26.6204 38.3829Z" fill="#51372B"/>
</g>
<rect x="0.967796" y="0.924705" width="45.6371" height="45.6371" rx="22.8186" stroke="#715739" stroke-width="0.475387"/>
<defs>
<clipPath id="clip0_290_227">
<rect x="0.730103" y="0.687012" width="46.1125" height="46.1125" rx="23.0562" fill="white"/>
</clipPath>
</defs>
</svg>
