<svg width="47" height="47" viewBox="0 0 47 47" fill="none" xmlns="http://www.w3.org/2000/svg">
<g clip-path="url(#clip0_290_237)">
<rect x="0.206665" y="0.687012" width="46.1125" height="46.1125" rx="23.0562" fill="#FFA0A0"/>
<path d="M28.3924 23.6199C25.9864 22.3164 22.3642 19.8463 16.9537 15.5513C16.6342 15.2978 16.1619 15.5369 16.1768 15.9445C16.3803 21.5044 16.1176 22.9028 12.3447 28.2155C7.66914 34.2478 2.27677 38.0515 -4.91983 42.2961C-5.22472 42.4759 -5.23498 42.9141 -4.93795 43.1066L15.6352 56.4434C15.764 56.5269 15.9252 56.5431 16.068 56.4868L42.2903 46.1569C42.4499 46.0941 42.5628 45.9523 42.5875 45.7825C43.2789 41.0368 45.0952 33.3011 37.5783 28.5516C35.6951 27.2293 30.9177 24.9879 28.3924 23.6199Z" fill="white" stroke="#715739" stroke-width="0.475387" stroke-linecap="round"/>
<path d="M20.6504 36.3413L22.2097 37.1209" stroke="#51372B" stroke-opacity="0.6" stroke-width="0.475387" stroke-linecap="round"/>
<path d="M27.304 37.1206L28.8632 36.341" stroke="#51372B" stroke-opacity="0.6" stroke-width="0.475387" stroke-linecap="round"/>
<path d="M23.9772 40.1445L24.9739 40.3144C25.1651 40.347 25.1707 40.6195 24.981 40.6599L24.9196 40.673C24.7621 40.7066 24.7491 40.9263 24.9015 40.9782V40.9782C25.041 41.0258 25.0459 41.2213 24.9089 41.2757L24.1673 41.5707" stroke="#51372B" stroke-width="0.570464" stroke-linecap="round"/>
<path d="M16.3705 16.85C16.3531 16.0545 16.3646 15.4297 16.6081 15.4238C23.4314 20.712 27.7586 23.7651 29.9187 24.6939C35.7702 27.579 38.7904 29.37 40.1397 30.8739C42.2679 33.7725 42.5047 34.4913 42.7543 35.6278C41.6981 37.3836 40.3004 39.2164 38.7134 40.3816C40.6295 37.5787 33.4713 29.0041 16.3705 16.85Z" fill="#FFE7D1"/>
<path d="M28.3924 23.6199C25.9864 22.3164 22.3642 19.8463 16.9537 15.5513C16.6342 15.2978 16.1619 15.5369 16.1768 15.9445C16.3803 21.5044 16.1176 22.9028 12.3447 28.2155C7.66914 34.2478 2.27677 38.0515 -4.91983 42.2961C-5.22472 42.4759 -5.23498 42.9141 -4.93795 43.1066L15.6352 56.4434C15.764 56.5269 15.9252 56.5431 16.068 56.4868L42.2903 46.1569C42.4499 46.0941 42.5628 45.9523 42.5875 45.7825C43.2789 41.0368 45.0952 33.3011 37.5783 28.5516C35.6951 27.2293 30.9177 24.9879 28.3924 23.6199Z" stroke="#715739" stroke-width="0.808157" stroke-linecap="round"/>
<path d="M27.304 38.2425L28.7301 37.7671" stroke="#51372B" stroke-width="0.950773" stroke-linecap="round"/>
<path d="M22.0751 38.2425L20.6489 37.7671" stroke="#51372B" stroke-width="0.950773" stroke-linecap="round"/>
</g>
<rect x="0.444358" y="0.924705" width="45.6371" height="45.6371" rx="22.8186" stroke="#715739" stroke-width="0.475387"/>
<defs>
<clipPath id="clip0_290_237">
<rect x="0.206665" y="0.687012" width="46.1125" height="46.1125" rx="23.0562" fill="white"/>
</clipPath>
</defs>
</svg>
