<svg width="47" height="47" viewBox="0 0 47 47" fill="none" xmlns="http://www.w3.org/2000/svg">
<g clip-path="url(#clip0_290_247)">
<rect x="0.68335" y="0.687012" width="46.1125" height="46.1125" rx="23.0562" fill="#FFB897"/>
<path d="M28.8675 23.6199C26.4615 22.3164 22.8393 19.8463 17.4288 15.5513C17.1093 15.2978 16.637 15.5369 16.6519 15.9445C16.8554 21.5044 16.5927 22.9028 12.8198 28.2155C8.14424 34.2478 2.75187 38.0515 -4.44473 42.2961C-4.74962 42.4759 -4.75988 42.9141 -4.46286 43.1066L16.1103 56.4434C16.2391 56.5269 16.4003 56.5431 16.5431 56.4868L42.7654 46.1569C42.925 46.0941 43.0379 45.9523 43.0626 45.7825C43.754 41.0368 45.5703 33.3011 38.0534 28.5516C36.1702 27.2293 31.3928 24.9879 28.8675 23.6199Z" fill="white" stroke="#715739" stroke-width="0.475387" stroke-linecap="round"/>
<path d="M26.0819 37.9145C26.38 38.4796 27.1795 38.5061 27.5144 37.962C27.6775 37.6968 27.6775 37.3623 27.5144 37.0972C27.1795 36.5531 26.38 36.5796 26.0819 37.1447C25.9549 37.3855 25.9549 37.6736 26.0819 37.9145Z" fill="#51372B"/>
<path d="M19.902 37.9145C20.2001 38.4796 20.9996 38.5061 21.3344 37.962C21.4976 37.6968 21.4976 37.3623 21.3344 37.0972C20.9996 36.5531 20.2001 36.5796 19.902 37.1447C19.7749 37.3855 19.7749 37.6736 19.902 37.9145Z" fill="#51372B"/>
<path d="M16.8458 16.85C16.8283 16.0545 16.8398 15.4297 17.0833 15.4238C23.9066 20.712 28.2338 23.7651 30.3939 24.6939C36.2454 27.579 39.2656 29.37 40.6149 30.8739C42.7431 33.7725 42.9799 34.4913 43.2295 35.6278C42.1733 37.3836 40.7756 39.2164 39.1886 40.3816C41.1048 37.5787 33.9465 29.0041 16.8458 16.85Z" fill="#FFE7D1"/>
<path d="M28.8675 23.6199C26.4615 22.3164 22.8393 19.8463 17.4288 15.5513C17.1093 15.2978 16.637 15.5369 16.6519 15.9445C16.8554 21.5044 16.5927 22.9028 12.8198 28.2155C8.14424 34.2478 2.75187 38.0515 -4.44473 42.2961C-4.74962 42.4759 -4.75988 42.9141 -4.46286 43.1066L16.1103 56.4434C16.2391 56.5269 16.4003 56.5431 16.5431 56.4868L42.7654 46.1569C42.925 46.0941 43.0379 45.9523 43.0626 45.7825C43.754 41.0368 45.5703 33.3011 38.0534 28.5516C36.1702 27.2293 31.3928 24.9879 28.8675 23.6199Z" stroke="#715739" stroke-width="0.808157" stroke-linecap="round"/>
<path d="M22.0747 40.1445H25.4024" stroke="#51372B" stroke-width="0.618002" stroke-linecap="round"/>
</g>
<rect x="0.921043" y="0.924705" width="45.6371" height="45.6371" rx="22.8186" stroke="#715739" stroke-width="0.475387"/>
<defs>
<clipPath id="clip0_290_247">
<rect x="0.68335" y="0.687012" width="46.1125" height="46.1125" rx="23.0562" fill="white"/>
</clipPath>
</defs>
</svg>
