<svg width="47" height="47" viewBox="0 0 47 47" fill="none" xmlns="http://www.w3.org/2000/svg">
<g clip-path="url(#clip0_290_255)">
<rect x="0.159912" y="0.687012" width="46.1125" height="46.1125" rx="23.0562" fill="#E6C1EB"/>
<path d="M28.3446 23.6199C25.9386 22.3164 22.3164 19.8463 16.9058 15.5513C16.5864 15.2978 16.114 15.5369 16.1289 15.9445C16.3325 21.5044 16.0697 22.9028 12.2969 28.2155C7.62129 34.2478 2.22892 38.0515 -4.96768 42.2961C-5.27257 42.4759 -5.28283 42.9141 -4.9858 43.1066L15.5874 56.4434C15.7162 56.5269 15.8774 56.5431 16.0202 56.4868L42.2424 46.1569C42.402 46.0941 42.5149 45.9523 42.5396 45.7825C43.2311 41.0368 45.0474 33.3011 37.5305 28.5516C35.6473 27.2293 30.8699 24.9879 28.3446 23.6199Z" fill="white" stroke="#715739" stroke-width="0.475387" stroke-linecap="round"/>
<path d="M21.0762 36.3413L19.1746 37.2921" stroke="#51372B" stroke-width="0.618002" stroke-linecap="round"/>
<path d="M28.2072 37.2915L26.3056 36.3407" stroke="#51372B" stroke-width="0.618002" stroke-linecap="round"/>
<path d="M16.3227 16.85C16.3052 16.0545 16.3168 15.4297 16.5602 15.4238C23.3835 20.712 27.7107 23.7651 29.8709 24.6939C35.7223 27.579 38.7426 29.37 40.0918 30.8739C42.22 33.7725 42.4569 34.4913 42.7065 35.6278C41.6503 37.3836 40.2525 39.2164 38.6655 40.3816C40.5817 37.5787 33.4235 29.0041 16.3227 16.85Z" fill="#FFE7D1"/>
<path d="M28.3446 23.6199C25.9386 22.3164 22.3164 19.8463 16.9058 15.5513C16.5864 15.2978 16.114 15.5369 16.1289 15.9445C16.3325 21.5044 16.0697 22.9028 12.2969 28.2155C7.62129 34.2478 2.22892 38.0515 -4.96768 42.2961C-5.27257 42.4759 -5.28283 42.9141 -4.9858 43.1066L15.5874 56.4434C15.7162 56.5269 15.8774 56.5431 16.0202 56.4868L42.2424 46.1569C42.402 46.0941 42.5149 45.9523 42.5396 45.7825C43.2311 41.0368 45.0474 33.3011 37.5305 28.5516C35.6473 27.2293 30.8699 24.9879 28.3446 23.6199Z" stroke="#715739" stroke-width="0.808157" stroke-linecap="round"/>
<path d="M25.5936 40.3507C24.9444 40.0537 24.851 40.0966 24.2755 40.3507C23.7466 40.7001 23.4485 40.717 22.9142 40.3507C22.3104 40.0983 21.8682 40.1168 21.5528 40.3507" stroke="#51372B" stroke-width="0.618002" stroke-linecap="round"/>
</g>
<rect x="0.397605" y="0.924705" width="45.6371" height="45.6371" rx="22.8186" stroke="#715739" stroke-width="0.475387"/>
<defs>
<clipPath id="clip0_290_255">
<rect x="0.159912" y="0.687012" width="46.1125" height="46.1125" rx="23.0562" fill="white"/>
</clipPath>
</defs>
</svg>
