<svg width="47" height="47" viewBox="0 0 47 47" fill="none" xmlns="http://www.w3.org/2000/svg">
<g clip-path="url(#clip0_290_263)">
<rect x="0.636475" y="0.687012" width="46.11" height="46.11" rx="23.055" fill="#95EB98"/>
<path d="M28.8205 23.6188C26.4146 22.3154 22.7926 19.8455 17.3824 15.5507C17.063 15.2972 16.5906 15.5363 16.6055 15.9439C16.8091 21.5035 16.5463 22.9018 12.7737 28.2142C8.09834 34.2462 2.70627 38.0497 -4.48994 42.294C-4.79482 42.4738 -4.80507 42.912 -4.50807 43.1046L16.064 56.4406C16.1928 56.5241 16.354 56.5403 16.4968 56.484L42.7176 46.1547C42.8772 46.0918 42.9901 45.95 43.0148 45.7803C43.7062 41.0348 45.5224 33.2996 38.0059 28.5503C36.1228 27.2281 31.3457 24.9868 28.8205 23.6188Z" fill="white" stroke="#715739" stroke-width="0.23768" stroke-linecap="round"/>
<path d="M22.7934 39.9872L22.2622 40.8107" stroke="#51372B" stroke-width="0.617969" stroke-linecap="round"/>
<path d="M22.0012 39.7765L21.7048 40.1057C21.3533 40.4961 21.4077 41.1029 21.823 41.4246V41.4246C22.225 41.7361 22.8049 41.6545 23.1053 41.2441L24.1799 39.7765" stroke="#51372B" stroke-width="0.617969" stroke-linecap="round"/>
<path d="M16.7983 16.8494C16.7808 16.0539 16.7923 15.4292 17.0358 15.4233C23.8587 20.7112 28.1857 23.7642 30.3457 24.6929C36.1969 27.5779 39.2169 29.3688 40.5661 30.8726C42.6942 33.771 42.931 34.4898 43.1806 35.6262C42.1245 37.3819 40.7268 39.2146 39.1399 40.3798C41.056 37.577 33.8981 29.0029 16.7983 16.8494Z" fill="#FFE7D1"/>
<path d="M28.8205 23.6188C26.4146 22.3154 22.7926 19.8455 17.3824 15.5507C17.063 15.2972 16.5906 15.5363 16.6055 15.9439C16.8091 21.5035 16.5463 22.9018 12.7737 28.2142C8.09834 34.2462 2.70627 38.0497 -4.48994 42.294C-4.79482 42.4738 -4.80507 42.912 -4.50807 43.1046L16.064 56.4406C16.1928 56.5241 16.354 56.5403 16.4968 56.484L42.7176 46.1547C42.8772 46.0918 42.9901 45.95 43.0148 45.7803C43.7062 41.0348 45.5224 33.2996 38.0059 28.5503C36.1228 27.2281 31.3457 24.9868 28.8205 23.6188Z" stroke="#715739" stroke-width="0.808113" stroke-linecap="round"/>
<path d="M20.6013 39.6664C20.6013 39.6664 23.0639 39.4287 24.6419 39.4287C26.2198 39.4287 28.6825 39.6664 28.6825 39.6664" stroke="#51372B" stroke-width="0.617969" stroke-linecap="round"/>
<path d="M30.3349 37.1416L28.0988 37.1285" stroke="#51372B" stroke-width="0.617969" stroke-linecap="round"/>
<path d="M19.9553 37.1074L22.1868 36.9641" stroke="#51372B" stroke-width="0.617969" stroke-linecap="round"/>
</g>
<rect x="0.874155" y="0.924692" width="45.6346" height="45.6346" rx="22.8173" stroke="#715739" stroke-width="0.475361"/>
<defs>
<clipPath id="clip0_290_263">
<rect x="0.636475" y="0.687012" width="46.11" height="46.11" rx="23.055" fill="white"/>
</clipPath>
</defs>
</svg>
