<svg width="60" height="20" viewBox="0 0 60 20" fill="none" xmlns="http://www.w3.org/2000/svg">
<rect width="60" height="20" rx="10" fill="#D6B997"/>
<path d="M18.0575 5H9.03883C8.61984 5 8.38667 5.48444 8.64805 5.81191L11.7118 9.6504C11.7825 9.73899 11.8211 9.84897 11.8211 9.96231V14.1005C11.8211 14.4927 12.2519 14.7322 12.585 14.5252L15.5218 12.6999C15.6686 12.6087 15.7579 12.4481 15.7579 12.2752V9.94061C15.7579 9.84066 15.7879 9.743 15.8439 9.66024L18.4715 5.78037C18.6964 5.44835 18.4585 5 18.0575 5Z" stroke="#562E00"/>
<path d="M29.6035 7.63672V8.48047H28.1973V14H27.1777V8.48047H26.1582V7.63672H27.1777V6.76953C27.1836 5.73828 27.8691 5.11719 28.9941 5.11719C29.2402 5.11719 29.5332 5.14648 29.7441 5.1875V6.08984C29.5273 6.05469 29.3457 6.04297 29.2168 6.04297C28.5078 6.04297 28.1914 6.33594 28.1973 6.99219V7.63672H29.6035ZM30.7988 14V7.63672H31.8066V14H30.7988ZM30.5996 5.91406C30.5938 5.53906 30.916 5.24023 31.3027 5.24609C31.6895 5.24023 32.0117 5.53906 32.0176 5.91406C32.0117 6.2832 31.6895 6.58203 31.3027 6.58203C30.916 6.58203 30.5938 6.2832 30.5996 5.91406ZM34.4199 5.51562V14H33.4121V5.51562H34.4199ZM38.8027 7.63672V8.48047H37.4668V12.1719C37.4609 12.9863 37.8711 13.1211 38.2988 13.1211C38.4805 13.1211 38.75 13.1035 38.8965 13.0977V14.0352C38.7383 14.0586 38.4922 14.082 38.1934 14.082C37.3438 14.082 36.4531 13.5547 36.4473 12.4297V8.48047H35.4863V7.63672H36.4473V6.11328H37.4668V7.63672H38.8027ZM42.7051 14.1289C40.8652 14.1348 39.7285 12.8223 39.7285 10.8711C39.7285 8.91406 40.8828 7.55469 42.6113 7.55469C43.9473 7.55469 45.3594 8.375 45.3535 10.7305V11.1523H40.7363C40.7891 12.5 41.5742 13.2383 42.7051 13.2383C43.4668 13.2383 43.9473 12.9043 44.1816 12.5117H45.2598C44.9609 13.4785 44.0176 14.1348 42.7051 14.1289ZM40.7422 10.2969H44.334C44.3281 9.23633 43.6602 8.44531 42.6113 8.44531C41.5098 8.44531 40.8125 9.3125 40.7422 10.2969ZM46.666 14V7.63672H47.6387V8.60938H47.709C47.9375 7.96484 48.5996 7.53711 49.3496 7.53125C49.502 7.53711 49.7598 7.54297 49.877 7.55469V8.57422C49.8008 8.55664 49.5312 8.50391 49.2676 8.50391C48.3535 8.50391 47.6738 9.13672 47.6738 9.99219V14H46.666Z" fill="#562E00"/>
</svg>
