<svg width="430" height="73" viewBox="0 0 430 73" fill="none" xmlns="http://www.w3.org/2000/svg">
<path fill-rule="evenodd" clip-rule="evenodd" d="M193.806 0.91812C182.205 2.33392 171.08 5.29069 157.061 10.6838C143.304 15.977 138.253 17.312 121.271 20.1442C112.646 21.5828 109.503 21.7709 93.7098 21.7937C75.2906 21.8196 73.1283 21.6241 56.7151 18.4411C52.9595 17.7122 49.5658 16.9241 49.1736 16.6892C48.7814 16.4543 46.301 15.5324 43.6614 14.6401C41.0219 13.7478 37.3197 12.4017 35.4343 11.6494C20.6749 5.75748 3.56655 3.33287 -20.0988 3.77931C-43.0168 4.21219 -55.8936 6.38768 -68.1438 11.8967C-80.3981 17.4076 -86.2147 25.9202 -84.7886 36.2557C-82.4384 53.2804 -65.7332 64.053 -33.5995 69.2654C-9.98901 73.0947 -16.3157 72.9998 215.06 72.9998C440.931 72.9998 438.343 73.0331 461.874 69.8358C487.395 66.3685 502.293 60.233 511.388 49.4437C515.848 44.1536 515.963 43.7786 515.998 34.46C516.035 24.748 515.462 23.1904 509.706 17.3959C506.497 14.1647 495.621 9.09348 488.298 7.41315C468.721 2.92219 437.214 2.40791 414.568 6.21009C410.698 6.86003 392.061 12.1057 390.572 12.9647C390.195 13.1824 385.875 14.2375 380.973 15.3092C370.408 17.6197 356.621 19.0454 344.891 19.0404C335.272 19.0361 310.056 17.4507 307.76 16.7052C306.927 16.4345 302.542 15.5552 298.017 14.7505C293.492 13.9452 284.853 11.8535 278.82 10.1017C250.218 1.79683 238.27 -0.111045 215.597 0.00488218C207.383 0.0468134 197.577 0.45811 193.806 0.91812Z" fill="white"/>
</svg>
